<svg version="1.1" xmlns="http://www.w3.org/2000/svg" xmlns:xlink="http://www.w3.org/1999/xlink" preserveAspectRatio="xMidYMid meet" viewBox="163.96439127408954 200.55172891423138 84.39409182274292 148.89620895844013" width="24" height="24"><defs><path d="M186.97 202.37C191.4 200.32 196.66 202.25 198.72 206.68C208.06 226.84 232.37 279.28 241.72 299.44C243.77 303.87 241.84 309.13 237.41 311.19C232.43 313.49 225.52 316.7 220.53 319.01C216.1 321.06 210.84 319.14 208.79 314.7C199.44 294.55 175.13 242.1 165.79 221.95C163.73 217.51 165.66 212.25 170.09 210.2C175.07 207.89 181.99 204.68 186.97 202.37Z" id="a3teER2aq"></path><path d="M227.64 331.42L210.48 317.7L226.66 309.48L242.84 301.26L243.81 323.2L244.79 345.14L227.64 331.42Z" id="g3jHW74tnN"></path><path d="M235.5 337.7L225.64 328.94L234.24 324.57L242.84 320.2L244.1 333.32L245.36 346.45L235.5 337.7Z" id="az3uIsU9L"></path></defs><g><g><use xlink:href="#a3teER2aq" opacity="1" fill="#6172e2" fill-opacity="1"></use></g><g><use xlink:href="#g3jHW74tnN" opacity="1" fill="#e2d661" fill-opacity="1"></use></g><g><use xlink:href="#az3uIsU9L" opacity="1" fill="#000000" fill-opacity="1"></use></g></g></svg>
