<svg version="1.1" xmlns="http://www.w3.org/2000/svg" xmlns:xlink="http://www.w3.org/1999/xlink" preserveAspectRatio="xMidYMid meet" viewBox="199.20979020979053 109.23776223776231 170.08391608391617 112.6433566433568" width="166.08" height="108.64"><defs><path d="M305.66 110.24C311.48 110.24 316.19 114.95 316.19 120.76C316.19 127.08 316.19 135.5 316.19 141.81C316.19 147.62 311.48 152.34 305.66 152.34C294.59 152.34 271.91 152.34 260.84 152.34C255.03 152.34 250.31 147.62 250.31 141.81C250.31 135.5 250.31 127.08 250.31 120.76C250.31 114.95 255.03 110.24 260.84 110.24C271.91 110.24 294.59 110.24 305.66 110.24Z" id="b4BNJHwNkK"></path><path d="M356.65 176.82L357.09 176.87L357.52 176.93L357.94 177.01L358.36 177.1L358.77 177.22L359.18 177.35L359.57 177.49L359.96 177.65L360.34 177.83L360.72 178.02L361.08 178.22L361.44 178.44L361.78 178.67L362.12 178.91L362.44 179.17L362.76 179.44L363.06 179.72L363.36 180.01L363.64 180.32L363.91 180.63L364.16 180.96L364.41 181.29L364.64 181.64L364.86 182L365.06 182.36L365.25 182.73L365.43 183.11L365.59 183.5L365.73 183.9L365.86 184.31L365.97 184.72L366.07 185.13L366.15 185.56L366.21 185.99L366.26 186.42L366.28 186.86L366.29 187.31L366.29 208.36L366.28 208.8L366.26 209.24L366.21 209.68L366.15 210.11L366.07 210.53L365.97 210.95L365.86 211.36L365.73 211.76L365.59 212.16L365.43 212.55L365.25 212.93L365.06 213.3L364.86 213.67L364.64 214.02L364.41 214.37L364.16 214.71L363.91 215.03L363.64 215.35L363.36 215.65L363.06 215.94L362.76 216.22L362.44 216.49L362.12 216.75L361.78 217L361.44 217.23L361.08 217.44L360.72 217.65L360.34 217.84L359.96 218.01L359.57 218.17L359.18 218.32L358.77 218.45L358.36 218.56L357.94 218.66L357.52 218.74L357.09 218.8L356.65 218.84L356.21 218.87L355.77 218.88L310.94 218.88L310.5 218.87L310.06 218.84L309.62 218.8L309.19 218.74L308.77 218.66L308.35 218.56L307.94 218.45L307.54 218.32L307.14 218.17L306.75 218.01L306.37 217.84L306 217.65L305.63 217.44L305.28 217.23L304.93 217L304.6 216.75L304.27 216.49L303.95 216.22L303.65 215.94L303.36 215.65L303.08 215.35L302.81 215.03L302.55 214.71L302.31 214.37L302.07 214.02L301.86 213.67L301.65 213.3L301.46 212.93L301.29 212.55L301.13 212.16L300.98 211.76L300.85 211.36L300.74 210.95L300.64 210.53L300.56 210.11L300.5 209.68L300.46 209.24L300.43 208.8L300.42 208.36L300.42 187.31L300.43 186.86L300.46 186.42L300.5 185.99L300.56 185.56L300.64 185.13L300.74 184.72L300.85 184.31L300.98 183.9L301.13 183.5L301.29 183.11L301.46 182.73L301.65 182.36L301.86 182L302.07 181.64L302.31 181.29L302.55 180.96L302.81 180.63L303.08 180.32L303.36 180.01L303.65 179.72L303.95 179.44L304.27 179.17L304.6 178.91L304.93 178.67L305.28 178.44L305.63 178.22L306 178.02L306.37 177.83L306.75 177.65L307.14 177.49L307.54 177.35L307.94 177.22L308.35 177.1L308.77 177.01L309.19 176.93L309.62 176.87L310.06 176.82L310.5 176.79L310.94 176.78L355.77 176.78L356.21 176.79L356.65 176.82ZM256.44 176.82L256.88 176.87L257.31 176.93L257.73 177.01L258.15 177.1L258.56 177.22L258.97 177.35L259.36 177.49L259.75 177.65L260.13 177.83L260.51 178.02L260.87 178.22L261.23 178.44L261.57 178.67L261.91 178.91L262.23 179.17L262.55 179.44L262.85 179.72L263.15 180.01L263.43 180.32L263.7 180.63L263.95 180.96L264.2 181.29L264.43 181.64L264.65 182L264.85 182.36L265.04 182.73L265.22 183.11L265.38 183.5L265.52 183.9L265.65 184.31L265.76 184.72L265.86 185.13L265.94 185.56L266 185.99L266.05 186.42L266.07 186.86L266.08 187.31L266.08 208.36L266.07 208.8L266.05 209.24L266 209.68L265.94 210.11L265.86 210.53L265.76 210.95L265.65 211.36L265.52 211.76L265.38 212.16L265.22 212.55L265.04 212.93L264.85 213.3L264.65 213.67L264.43 214.02L264.2 214.37L263.95 214.71L263.7 215.03L263.43 215.35L263.15 215.65L262.85 215.94L262.55 216.22L262.23 216.49L261.91 216.75L261.57 217L261.23 217.23L260.87 217.44L260.51 217.65L260.13 217.84L259.75 218.01L259.36 218.17L258.97 218.32L258.56 218.45L258.15 218.56L257.73 218.66L257.31 218.74L256.88 218.8L256.44 218.84L256 218.87L255.56 218.88L210.73 218.88L210.29 218.87L209.85 218.84L209.41 218.8L208.98 218.74L208.56 218.66L208.14 218.56L207.73 218.45L207.33 218.32L206.93 218.17L206.54 218.01L206.16 217.84L205.79 217.65L205.42 217.44L205.07 217.23L204.72 217L204.39 216.75L204.06 216.49L203.74 216.22L203.44 215.94L203.15 215.65L202.87 215.35L202.6 215.03L202.34 214.71L202.1 214.37L201.86 214.02L201.65 213.67L201.44 213.3L201.25 212.93L201.08 212.55L200.92 212.16L200.77 211.76L200.64 211.36L200.53 210.95L200.43 210.53L200.35 210.11L200.29 209.68L200.25 209.24L200.22 208.8L200.21 208.36L200.21 187.31L200.22 186.86L200.25 186.42L200.29 185.99L200.35 185.56L200.43 185.13L200.53 184.72L200.64 184.31L200.77 183.9L200.92 183.5L201.08 183.11L201.25 182.73L201.44 182.36L201.65 182L201.86 181.64L202.1 181.29L202.34 180.96L202.6 180.63L202.87 180.32L203.15 180.01L203.44 179.72L203.74 179.44L204.06 179.17L204.39 178.91L204.72 178.67L205.07 178.44L205.42 178.22L205.79 178.02L206.16 177.83L206.54 177.65L206.93 177.49L207.33 177.35L207.73 177.22L208.14 177.1L208.56 177.01L208.98 176.93L209.41 176.87L209.85 176.82L210.29 176.79L210.73 176.78L255.56 176.78L256 176.79L256.44 176.82Z" id="bTApJZ15C"></path><path d="M355.77 176.78C361.58 176.78 366.29 181.5 366.29 187.31C366.29 193.62 366.29 202.04 366.29 208.36C366.29 214.17 361.58 218.88 355.77 218.88C344.7 218.88 322.01 218.88 310.94 218.88C305.13 218.88 300.42 214.17 300.42 208.36C300.42 202.04 300.42 193.62 300.42 187.31C300.42 181.5 305.13 176.78 310.94 176.78C322.01 176.78 344.7 176.78 355.77 176.78Z" id="b8XiHwG4F"></path><path d="M283.25 152.34L283.25 163.71L234.69 163.71L234.69 176.78" id="c3gmo0AkMr"></path><path d="M330.49 177.78L330.49 163.31L283.25 163.31L283.25 153.34" id="ccttcZjfr"></path><path d="M252.01 129.87L268.84 119.05L308.36 180.55L291.54 191.36L252.01 129.87Z" id="aHBOR4kF1"></path><path d="M301.36 196.75L291.62 191.25L299.92 185.67L308.21 180.08L309.65 191.17L311.09 202.25L301.36 196.75Z" id="b247iUZF76"></path><path d="M306.37 199.71L301.5 196.96L305.65 194.17L309.8 191.37L310.52 196.92L311.24 202.46L306.37 199.71Z" id="h6oxgvdAvG"></path></defs><g><g><use xlink:href="#b4BNJHwNkK" opacity="1" fill="#4121d3" fill-opacity="1"></use></g><g><use xlink:href="#bTApJZ15C" opacity="1" fill="#f0e2d0" fill-opacity="1"></use><use xlink:href="#bTApJZ15C" opacity="1" fill="#21d334" fill-opacity="1"></use><use xlink:href="#bTApJZ15C" opacity="1" fill="#4121d3" fill-opacity="1"></use></g><g><use xlink:href="#b8XiHwG4F" opacity="1" fill="#e2f69a" fill-opacity="1"></use></g><g><g><use xlink:href="#c3gmo0AkMr" opacity="1" fill-opacity="0" stroke="#000000" stroke-width="1" stroke-opacity="1"></use></g></g><g><g><use xlink:href="#ccttcZjfr" opacity="1" fill-opacity="0" stroke="#000000" stroke-width="1" stroke-opacity="1"></use></g></g><g><use xlink:href="#aHBOR4kF1" opacity="1" fill="#21d360" fill-opacity="1"></use></g><g><use xlink:href="#b247iUZF76" opacity="1" fill="#da922c" fill-opacity="1"></use></g><g><use xlink:href="#h6oxgvdAvG" opacity="1" fill="#000000" fill-opacity="1"></use></g></g></svg>
